<svg width="175" height="29" viewBox="0 0 175 29" fill="none" xmlns="http://www.w3.org/2000/svg">
<g id="Forever 21 Logo" clip-path="url(#clip0_1_237)">
<g id="Group">
<g id="Group_2">
<path id="Vector" d="M170.89 0.240248L166.78 0.22654V4.58491L170.89 4.56326V28.767H175V0.240248H170.89ZM161.681 7.17425C161.681 3.3678 159.866 0 155.592 0C152.164 0 149.424 2.80145 149.424 6.21181V8.45485H153.533V6.12668C153.533 4.80423 154.337 4.08205 155.549 4.08205C157.564 4.08205 157.564 5.8013 157.564 7.24495C157.564 8.80836 157.564 9.60775 156.84 11.0088L149.424 24.9107V28.7598H161.681V24.6705H154.265L160.311 13.0888C161.602 10.6546 161.681 9.93313 161.681 7.17425ZM123.002 12.9828H120.663V4.08926H122.801C125.828 4.08926 126.308 5.65268 126.308 8.53926C126.308 11.3768 125.871 12.9828 123.002 12.9828ZM130.425 8.61718C130.425 3.08498 128.044 0.240248 123.167 0.240248H116.554V28.767H120.663V16.5908H123.124L126.954 28.7742H131.307L126.875 15.7489C129.493 14.3052 130.425 11.8998 130.425 8.61718ZM97.9564 28.767H110.214V24.6777H102.073V16.308H109.167V12.459H102.073V4.08926H110.214V0.240248H97.9564V28.767ZM84.1503 20.1563H84.0713L80.8079 0.240248H76.4548L82.2999 28.767H85.929L91.8173 0.240248H87.4642L84.1503 20.1563ZM58.9187 28.767H71.1758V24.6777H63.0283V16.308H70.1218V12.459H63.0283V4.08926H71.1692V0.240248H58.9187V28.767ZM44.8617 12.9828H42.5235V4.08926H44.6606C47.6877 4.08926 48.1682 5.65268 48.1682 8.53926C48.1609 11.3768 47.7235 12.9828 44.8617 12.9828ZM52.2778 8.61718C52.2778 3.08498 49.8965 0.240248 45.0197 0.240248H38.4066V28.767H42.5162V16.5908H44.9765L48.806 28.7742H53.1598L48.727 15.7489C51.3526 14.3052 52.2778 11.8998 52.2778 8.61718ZM27.6847 22.0386C27.6847 24.0053 26.3931 24.9252 24.9018 24.9252C23.4098 24.9252 22.1189 24.0053 22.1189 22.0386V6.96863C22.1189 5.00192 23.4098 4.08205 24.9018 4.08205C26.3931 4.08205 27.6847 5.00192 27.6847 6.96863V22.0386ZM24.9018 0C21.5521 0 18.0093 2.32023 18.0093 6.96863V22.0314C18.0093 26.6798 21.5594 29 24.9018 29C28.2507 29 31.7942 26.6798 31.7942 22.0314V6.96863C31.7942 2.32023 28.2507 0 24.9018 0ZM0 28.767H4.10958V16.5908H11.2032V12.7418H4.10958V4.08926H12.2498V0.240248H0V28.767Z" fill="white"/>
</g>
</g>
</g>
<defs>
<clipPath id="clip0_1_237">
<rect width="175" height="29" fill="white"/>
</clipPath>
</defs>
</svg>
