<svg width="32" height="32" viewBox="0 0 32 32" fill="none" xmlns="http://www.w3.org/2000/svg">
<g id="bi:bag">
<g id="Group">
<path id="Vector" d="M16 2C17.3261 2 18.5979 2.52678 19.5355 3.46447C20.4732 4.40215 21 5.67392 21 7V8H11V7C11 5.67392 11.5268 4.40215 12.4645 3.46447C13.4021 2.52678 14.6739 2 16 2ZM23 8V7C23 5.14348 22.2625 3.36301 20.9497 2.05025C19.637 0.737498 17.8565 0 16 0C14.1435 0 12.363 0.737498 11.0503 2.05025C9.7375 3.36301 9 5.14348 9 7V8H2V28C2 29.0609 2.42143 30.0783 3.17157 30.8284C3.92172 31.5786 4.93913 32 6 32H26C27.0609 32 28.0783 31.5786 28.8284 30.8284C29.5786 30.0783 30 29.0609 30 28V8H23ZM4 10H28V28C28 28.5304 27.7893 29.0391 27.4142 29.4142C27.0391 29.7893 26.5304 30 26 30H6C5.46957 30 4.96086 29.7893 4.58579 29.4142C4.21071 29.0391 4 28.5304 4 28V10Z" fill="#848484"/>
</g>
</g>
</svg>
